<svg id="svg" version="1.1" xmlns="http://www.w3.org/2000/svg" xmlns:xlink="http://www.w3.org/1999/xlink" width="400" height="54.48" viewBox="0, 0, 400,54.48"><g id="svgg"><path id="path0" d="M159.500 0.104 C 155.377 0.527,155.468 -0.149,155.575 29.417 C 155.665 54.012,155.184 51.951,160.888 52.170 C 165.490 52.346,205.970 52.255,206.530 52.067 C 208.508 51.402,208.493 51.610,208.436 24.750 C 208.383 -0.144,208.487 1.275,206.667 0.431 C 205.976 0.111,162.384 -0.192,159.500 0.104 M169.306 7.759 C 173.402 9.808,172.132 16.012,167.611 16.036 C 162.869 16.061,161.281 9.783,165.507 7.721 C 167.050 6.968,167.738 6.975,169.306 7.759 M28.849 7.549 C 27.328 8.034,26.164 10.281,26.398 12.278 C 27.030 17.650,35.210 17.253,35.185 11.853 C 35.168 8.325,32.370 6.425,28.849 7.549 M0.000 26.167 L 0.000 44.667 11.667 44.667 L 23.333 44.667 23.333 40.917 L 23.333 37.167 15.750 37.167 L 8.167 37.167 8.167 22.417 L 8.167 7.667 4.083 7.667 L 0.000 7.667 0.000 26.167 M67.500 26.167 L 67.500 44.667 71.417 44.667 L 75.333 44.667 75.359 44.208 C 75.373 43.956,75.402 43.675,75.423 43.583 C 75.444 43.492,75.470 41.073,75.481 38.208 C 75.491 35.344,75.556 33.001,75.625 33.002 C 75.694 33.003,77.500 35.636,79.639 38.854 L 83.529 44.704 88.175 44.641 C 91.474 44.597,92.879 44.521,93.020 44.380 C 93.209 44.191,92.450 42.993,91.465 41.927 C 91.301 41.749,91.167 41.556,91.167 41.497 C 91.167 41.407,88.492 37.776,88.029 37.238 C 87.944 37.139,87.586 36.651,87.233 36.154 C 86.880 35.657,86.327 34.908,86.004 34.490 C 85.681 34.071,85.267 33.520,85.083 33.264 C 84.900 33.009,84.506 32.474,84.208 32.076 C 83.498 31.128,83.269 31.518,86.902 27.500 C 87.192 27.179,88.285 25.942,89.331 24.750 C 90.378 23.558,91.613 22.167,92.075 21.657 C 92.943 20.702,93.347 20.216,93.562 19.868 C 93.658 19.712,92.568 19.667,88.775 19.667 L 83.863 19.667 82.835 20.875 C 82.269 21.540,81.642 22.271,81.441 22.500 C 81.241 22.729,80.028 24.148,78.747 25.654 C 77.465 27.160,76.216 28.622,75.970 28.904 L 75.523 29.417 75.487 19.833 C 75.468 14.563,75.438 9.987,75.421 9.667 C 75.404 9.346,75.377 8.765,75.362 8.375 L 75.333 7.667 71.417 7.667 L 67.500 7.667 67.500 26.167 M139.960 14.761 L 139.917 21.855 138.848 20.929 C 137.447 19.716,136.442 19.351,133.949 19.149 C 127.558 18.632,124.499 20.283,121.719 25.750 C 120.013 29.105,120.049 35.815,121.790 39.000 C 123.359 41.872,125.246 43.441,128.750 44.788 C 131.751 45.942,136.932 44.950,139.461 42.737 C 140.690 41.662,140.833 41.752,140.833 43.597 L 140.833 44.667 144.417 44.667 L 148.000 44.667 148.000 26.167 L 148.000 7.667 144.002 7.667 L 140.004 7.667 139.960 14.761 M224.167 26.167 L 224.167 44.667 233.917 44.667 L 243.667 44.667 243.667 43.167 L 243.667 41.667 235.583 41.667 L 227.500 41.667 227.500 24.667 L 227.500 7.667 225.833 7.667 L 224.167 7.667 224.167 26.167 M342.733 10.661 C 341.893 11.035,341.500 11.880,341.500 13.314 C 341.500 16.174,345.366 16.771,346.654 14.110 C 347.692 11.966,345.041 9.634,342.733 10.661 M52.150 19.158 C 51.418 19.292,49.628 20.062,49.226 20.416 C 49.121 20.508,48.609 20.918,48.088 21.327 C 47.567 21.736,47.069 22.205,46.981 22.369 C 46.647 22.994,46.500 22.628,46.500 21.167 L 46.500 19.667 42.750 19.667 L 39.000 19.667 39.000 32.167 L 39.000 44.667 42.896 44.667 L 46.792 44.667 46.896 44.146 C 46.953 43.859,47.003 40.916,47.007 37.604 C 47.017 29.630,47.177 28.325,48.276 27.257 C 50.768 24.837,54.571 25.781,55.154 28.966 C 55.463 30.650,55.461 30.596,55.481 37.875 L 55.500 44.667 59.509 44.667 L 63.518 44.667 63.477 38.792 C 63.386 25.684,63.087 23.642,60.919 21.353 C 59.309 19.652,55.143 18.609,52.150 19.158 M102.583 19.245 C 98.044 20.083,93.781 23.765,92.737 27.750 C 92.238 29.654,92.292 35.357,92.824 36.833 C 93.980 40.043,97.025 43.036,100.526 44.401 C 103.132 45.418,109.030 45.479,111.078 44.510 C 111.447 44.335,112.013 44.075,112.333 43.933 C 113.005 43.634,113.193 43.519,114.667 42.504 C 115.853 41.686,117.000 40.701,117.000 40.500 C 117.000 40.385,115.026 38.878,113.500 37.827 C 113.179 37.606,112.767 37.285,112.583 37.114 C 111.737 36.321,111.452 36.389,109.917 37.754 C 107.547 39.862,103.342 39.752,101.499 37.534 C 100.781 36.672,99.974 34.961,100.184 34.750 C 100.289 34.645,103.623 34.562,109.264 34.525 L 118.178 34.466 118.088 33.358 C 117.744 29.139,117.618 28.110,117.309 27.000 C 116.900 25.533,116.195 24.070,115.526 23.299 C 115.263 22.997,114.960 22.581,114.852 22.374 C 113.565 19.924,107.410 18.355,102.583 19.245 M194.190 19.429 C 196.156 19.800,197.602 20.777,198.856 22.583 C 200.320 24.691,200.451 25.830,200.483 36.792 L 200.506 44.667 196.670 44.667 L 192.833 44.667 192.824 42.542 C 192.809 38.817,192.537 30.321,192.402 29.333 C 192.031 26.614,191.100 25.779,188.587 25.914 C 184.652 26.126,184.291 27.078,184.086 37.764 C 184.031 40.598,183.947 43.310,183.898 43.792 L 183.809 44.667 180.071 44.667 C 178.015 44.667,176.333 44.648,176.331 44.625 C 176.330 44.602,176.281 38.977,176.221 32.125 L 176.113 19.667 179.890 19.667 L 183.667 19.667 183.686 21.042 C 183.696 21.798,183.692 22.548,183.675 22.708 C 183.627 23.185,183.909 23.044,184.509 22.292 C 184.820 21.902,185.245 21.446,185.455 21.279 C 185.664 21.111,185.928 20.884,186.043 20.773 C 187.603 19.255,190.626 18.756,194.190 19.429 M27.041 32.125 L 27.083 44.583 30.833 44.628 L 34.583 44.673 34.540 32.170 L 34.496 19.667 30.747 19.667 L 26.998 19.667 27.041 32.125 M171.333 31.125 C 171.311 37.427,171.256 43.052,171.210 43.625 L 171.128 44.667 167.412 44.667 L 163.697 44.667 163.627 42.875 C 163.588 41.890,163.542 36.265,163.524 30.375 L 163.491 19.667 167.432 19.667 L 171.372 19.667 171.333 31.125 M255.000 21.115 C 251.339 21.521,248.370 23.556,246.699 26.806 C 243.001 33.994,245.841 42.199,252.918 44.780 C 254.275 45.275,259.885 45.225,261.219 44.707 C 265.232 43.147,268.497 40.002,267.232 38.915 C 266.032 37.885,265.283 38.013,263.794 39.506 C 262.604 40.699,261.279 41.589,260.074 42.003 C 258.842 42.427,254.963 42.378,253.917 41.925 C 251.276 40.782,249.732 39.048,248.724 36.093 L 248.322 34.917 248.680 34.625 C 248.876 34.465,249.179 34.324,249.352 34.313 C 249.525 34.301,249.742 34.273,249.833 34.250 C 249.925 34.227,254.242 34.199,259.428 34.188 L 268.855 34.167 268.772 33.458 C 268.531 31.399,268.434 30.812,268.149 29.690 C 267.160 25.791,264.069 22.311,260.774 21.387 C 259.947 21.154,256.225 20.979,255.000 21.115 M308.554 21.332 C 306.715 21.816,306.307 22.126,304.275 24.583 C 303.705 25.273,303.641 25.120,303.653 23.099 L 303.664 21.333 302.165 21.333 L 300.667 21.333 300.667 33.000 L 300.667 44.667 302.333 44.667 L 304.000 44.667 304.000 38.037 C 304.000 34.373,304.079 30.779,304.176 30.002 C 304.600 26.619,306.761 24.470,310.000 24.210 C 311.593 24.082,311.667 24.017,311.667 22.748 C 311.667 21.142,310.792 20.744,308.554 21.332 M324.130 21.162 C 322.875 21.389,320.265 22.780,319.196 23.792 C 318.895 24.077,318.504 24.054,318.479 23.750 C 318.468 23.613,318.440 23.425,318.417 23.333 C 318.394 23.242,318.366 22.754,318.354 22.250 L 318.333 21.333 316.875 21.333 L 315.417 21.333 315.417 33.000 L 315.417 44.667 316.875 44.667 L 318.333 44.667 318.333 36.273 L 318.333 27.880 319.292 27.038 C 321.569 25.035,322.867 24.306,324.890 23.895 C 327.104 23.445,328.823 23.963,330.410 25.560 C 331.901 27.061,331.985 27.727,331.994 38.125 L 332.000 44.667 333.656 44.667 L 335.312 44.667 335.227 37.708 C 335.070 24.960,334.905 24.279,331.417 21.967 C 330.291 21.222,326.257 20.776,324.130 21.162 M360.689 21.350 C 358.915 21.826,357.229 22.773,355.875 24.053 L 355.333 24.565 355.333 22.949 L 355.333 21.333 353.667 21.333 L 352.000 21.333 352.000 33.000 L 352.000 44.667 353.667 44.667 L 355.333 44.667 355.333 36.014 L 355.333 27.361 355.886 27.019 C 356.190 26.831,356.583 26.518,356.760 26.322 C 358.602 24.287,363.090 23.181,365.234 24.233 C 368.685 25.927,368.993 27.139,368.998 39.042 L 369.000 44.667 370.417 44.667 L 371.833 44.667 371.833 35.580 L 371.833 26.493 371.449 25.872 C 371.237 25.530,370.926 24.952,370.757 24.588 C 369.433 21.737,364.799 20.246,360.689 21.350 M385.583 21.097 C 385.400 21.141,384.912 21.261,384.500 21.363 C 381.364 22.138,377.755 25.592,376.910 28.625 C 376.262 30.955,376.419 36.593,377.180 38.318 C 379.164 42.814,382.753 45.091,387.833 45.077 C 391.565 45.066,393.202 44.425,395.650 42.017 L 397.155 40.535 397.062 42.143 C 396.873 45.405,396.469 46.827,395.270 48.454 C 392.623 52.048,385.885 52.534,379.958 49.560 L 378.833 48.996 378.834 50.373 C 378.835 52.281,379.094 52.684,380.612 53.138 C 389.834 55.896,397.438 53.771,399.439 47.876 C 399.911 46.485,399.994 44.243,399.997 32.792 L 400.000 21.333 398.500 21.333 L 397.000 21.333 396.999 23.458 L 396.998 25.583 395.722 24.279 C 393.298 21.804,391.858 21.195,388.167 21.084 C 386.929 21.047,385.767 21.053,385.583 21.097 M279.401 21.338 C 278.636 21.490,277.616 21.888,277.295 22.159 C 277.179 22.258,276.596 22.705,276.000 23.152 C 268.635 28.679,270.032 41.090,278.391 44.394 C 283.258 46.317,288.939 44.974,291.275 41.346 L 291.750 40.610 291.797 42.638 L 291.844 44.667 293.505 44.667 L 295.167 44.667 295.167 33.000 L 295.167 21.333 293.672 21.333 L 292.177 21.333 292.130 23.458 L 292.083 25.583 291.083 24.568 C 290.533 24.009,289.746 23.298,289.333 22.989 C 288.921 22.679,288.546 22.382,288.500 22.329 C 287.670 21.366,282.240 20.776,279.401 21.338 M339.000 22.564 C 339.000 24.005,338.982 23.992,341.000 24.000 C 342.977 24.008,342.812 22.979,342.838 35.458 L 342.858 44.667 344.345 44.667 L 345.833 44.667 345.833 33.000 L 345.833 21.333 342.417 21.333 L 339.000 21.333 339.000 22.564 M259.865 24.295 C 262.673 25.575,264.634 27.984,264.987 30.590 L 265.111 31.500 256.719 31.500 L 248.327 31.500 248.438 31.042 C 248.499 30.790,248.604 30.433,248.671 30.250 C 248.738 30.067,248.804 29.861,248.818 29.793 C 249.690 25.412,255.725 22.408,259.865 24.295 M285.967 24.153 C 290.085 25.414,292.604 30.109,291.766 34.961 C 291.619 35.811,291.433 36.636,291.352 36.795 C 291.272 36.953,291.108 37.292,290.989 37.547 C 290.097 39.451,287.238 41.773,285.178 42.266 C 278.852 43.779,272.957 37.244,274.714 30.667 C 274.751 30.529,274.841 30.192,274.914 29.917 C 275.494 27.743,278.665 24.495,280.801 23.888 C 281.848 23.591,284.589 23.731,285.967 24.153 M389.500 23.839 C 397.343 25.068,399.717 35.977,393.193 40.814 C 387.194 45.261,378.789 40.181,379.403 32.478 C 379.849 26.888,384.354 23.033,389.500 23.839 M107.854 25.183 C 108.708 25.728,109.704 27.092,109.984 28.100 C 110.356 29.439,110.779 29.333,105.065 29.333 L 99.963 29.333 100.077 28.708 C 100.661 25.514,105.168 23.471,107.854 25.183 M135.859 25.909 C 143.458 27.888,141.309 39.271,133.503 38.390 C 131.480 38.162,129.133 36.245,128.615 34.399 C 127.161 29.217,131.053 24.657,135.859 25.909 " stroke="none" fill="#0c64c4" fill-rule="evenodd"></path><path id="path1" d="M34.579 32.083 C 34.579 38.958,34.600 41.795,34.625 38.387 C 34.650 34.980,34.650 29.355,34.625 25.887 C 34.600 22.420,34.579 25.208,34.579 32.083 M315.412 33.000 C 315.412 39.371,315.433 41.977,315.458 38.792 C 315.484 35.606,315.484 30.394,315.458 27.208 C 315.433 24.023,315.412 26.629,315.412 33.000 M171.212 42.833 C 171.212 43.246,171.245 43.415,171.284 43.208 C 171.324 43.002,171.324 42.665,171.284 42.458 C 171.245 42.252,171.212 42.421,171.212 42.833 " stroke="none" fill="#1064c4" fill-rule="evenodd"></path><path id="path2" d="M34.579 32.083 C 34.579 38.958,34.600 41.795,34.625 38.387 C 34.650 34.980,34.650 29.355,34.625 25.887 C 34.600 22.420,34.579 25.208,34.579 32.083 M315.412 33.000 C 315.412 39.371,315.433 41.977,315.458 38.792 C 315.484 35.606,315.484 30.394,315.458 27.208 C 315.433 24.023,315.412 26.629,315.412 33.000 M171.212 42.833 C 171.212 43.246,171.245 43.415,171.284 43.208 C 171.324 43.002,171.324 42.665,171.284 42.458 C 171.245 42.252,171.212 42.421,171.212 42.833 " stroke="none" fill="#1064c4" fill-rule="evenodd"></path><path id="path3" d="M34.579 32.083 C 34.579 38.958,34.600 41.795,34.625 38.387 C 34.650 34.980,34.650 29.355,34.625 25.887 C 34.600 22.420,34.579 25.208,34.579 32.083 M315.412 33.000 C 315.412 39.371,315.433 41.977,315.458 38.792 C 315.484 35.606,315.484 30.394,315.458 27.208 C 315.433 24.023,315.412 26.629,315.412 33.000 M171.212 42.833 C 171.212 43.246,171.245 43.415,171.284 43.208 C 171.324 43.002,171.324 42.665,171.284 42.458 C 171.245 42.252,171.212 42.421,171.212 42.833 " stroke="none" fill="#1064c4" fill-rule="evenodd"></path><path id="path4" d="M34.579 32.083 C 34.579 38.958,34.600 41.795,34.625 38.387 C 34.650 34.980,34.650 29.355,34.625 25.887 C 34.600 22.420,34.579 25.208,34.579 32.083 M315.412 33.000 C 315.412 39.371,315.433 41.977,315.458 38.792 C 315.484 35.606,315.484 30.394,315.458 27.208 C 315.433 24.023,315.412 26.629,315.412 33.000 M171.212 42.833 C 171.212 43.246,171.245 43.415,171.284 43.208 C 171.324 43.002,171.324 42.665,171.284 42.458 C 171.245 42.252,171.212 42.421,171.212 42.833 " stroke="none" fill="#1064c4" fill-rule="evenodd"></path></g></svg>