<svg version="1.2" baseProfile="tiny-ps" xmlns="http://www.w3.org/2000/svg" viewBox="0 0 1591 1604" width="1591" height="1604">
	<title>munichre_logo-svg copy-svg</title>
	<style>
		tspan { white-space:pre }
		.shp0 { fill: #175788 } 
	</style>
	<g id="Layer">
		<path id="Layer" fill-rule="evenodd" class="shp0" d="M1591 995.51L1591 1106.15L301.93 1106.15L192.28 995.51L1591 995.51ZM1591 0L1591 110.57L685.95 110.57L795.59 0L1591 0ZM1591 331.82L1591 442.43L356.85 442.43L466.58 331.82L1591 331.82ZM1591 663.68L1591 774.25L27.71 774.25L137.44 663.68L1591 663.68ZM1591 1327.49L1591 1438.1L631.11 1438.1L521.42 1327.49L1591 1327.49ZM1069.93 276.5L0.23 276.5L0.23 165.85L960.29 165.85L1069.93 276.5ZM1563.6 829.66L1453.91 940.3L0.23 940.3L0.23 829.66L1563.6 829.66ZM1234.54 1161.44L1124.81 1272.08L0.23 1272.08L0.23 1161.44L1234.54 1161.44ZM905.32 1493.3L795.59 1603.99L0.23 1603.99L0.23 1493.3L905.32 1493.3ZM1399.03 608.4L0.23 608.4L0.23 497.71L1289.34 497.71L1399.03 608.4Z" />
	</g>
</svg>