<?xml version="1.0" encoding="UTF-8"?>
<svg width="500" height="179" version="1.1" viewBox="0 0 132.29 47.36" xmlns="http://www.w3.org/2000/svg">
 <defs>
  <style>.cls-1{fill:#06f;}.cls-2{fill:#06f;}</style>
  <clipPath id="clip1-3">
   <path d="m179 8h41.859v41h-41.859z"/>
  </clipPath>
 </defs>
 <g>
  <g transform="matrix(1.1942 0 0 1.1942 11.375 -4.2079)" fill="#06f">
   <g stroke-width=".091281">
    <path class="cls-2" d="m28.876 20.076h-3.0433v-1.8128h7.9807v1.8128h-3.0515v8.3431h-1.8859z"/>
    <path class="cls-2" d="m40.178 26.243c-0.15974 0.58055-1.0735 2.3213-3.4094 2.3213-2.1761 0-3.7727-1.5956-3.7727-3.8448s1.5965-3.8448 3.7727-3.8448c2.031 0 3.6275 1.5956 3.6275 3.6996a4.1232 4.1232 0 0 1-0.04381 0.52213l-0.02922 0.20356h-5.5134c0.15974 1.0297 0.92833 1.7407 1.9589 1.7407 0.85622 0 1.3783-0.49292 1.5235-0.7978zm-1.5956-2.1761c-0.15974-0.94385-0.78411-1.6686-1.8138-1.6686-1.1027 0-1.7416 0.72477-1.9589 1.6686z"/>
    <path class="cls-2" d="m41.484 18.263h1.8138v10.156h-1.8138z"/>
    <path class="cls-2" d="m51.567 26.243c-0.15974 0.58055-1.0735 2.3213-3.4103 2.3213-2.1761 0-3.7717-1.5956-3.7717-3.8448s1.5956-3.8448 3.7717-3.8448c2.0319 0 3.6275 1.5956 3.6275 3.6996a4.1232 4.1232 0 0 1-0.04382 0.52213l-0.02829 0.20356h-5.5143c0.15974 1.0297 0.92924 1.7407 1.9589 1.7407 0.85622 0 1.3783-0.49292 1.5235-0.7978zm-1.5965-2.1761c-0.15974-0.94385-0.78319-1.6686-1.8138-1.6686-1.1027 0-1.7407 0.72477-1.9589 1.6686z"/>
    <path class="cls-2" d="m53.452 22.76h-1.2332v-1.7407h1.2332v-1.089c0-1.1027 0.71108-1.8138 1.8138-1.8138h1.5965v1.5965h-1.089a0.49566 0.49566 0 0 0-0.50844 0.50752v0.79871h1.5965v1.7407h-1.5965v5.6594h-1.8138z"/>
    <path class="cls-2" d="m64.678 24.724c0 2.2492-1.5965 3.8448-3.7727 3.8448-2.1761 0-3.7727-1.6002-3.7727-3.8448s1.5965-3.8448 3.7727-3.8448c2.1761 0 3.7727 1.591 3.7727 3.8448zm-1.8138 0c0-1.3062-0.87082-2.1761-1.9589-2.1761-1.0881 0-1.9589 0.86991-1.9589 2.1761 0 1.3062 0.87082 2.1761 1.9589 2.1761 1.0881 0 1.9589-0.87447 1.9589-2.1761z"/>
    <path class="cls-2" d="m65.765 21.019h1.6686l0.14513 0.73025h0.07212a2.3961 2.3961 0 0 1 0.49383-0.43541 2.7667 2.7667 0 0 1 1.5381-0.43541c1.6686 0 2.9018 1.2332 2.9018 3.1191v4.4253h-1.8138v-4.2847c0-0.94294-0.65266-1.5956-1.5965-1.5956-0.94385 0-1.5956 0.65266-1.5956 1.5956v4.2802h-1.8138z"/>
    <path class="cls-2" d="m84.128 25.662c-0.23185 1.1611-1.1456 2.9018-3.4824 2.9018-2.1761 0-3.7717-1.5956-3.7717-3.8448s1.5956-3.8448 3.7717-3.8448c2.3368 0 3.2505 1.7407 3.4824 2.8297h-1.8128c-0.15974-0.42081-0.58055-1.1602-1.6695-1.1602-1.089 0-1.9616 0.869-1.9616 2.1798s0.87082 2.1761 1.9589 2.1761c1.0881 0 1.5098-0.72477 1.6695-1.2332z"/>
    <path class="cls-2" d="m89.613 27.694h-0.07211a2.1716 2.1716 0 0 1-0.50844 0.4345 2.9082 2.9082 0 0 1-1.5956 0.43541c-1.6832 0-2.6846-1.0297-2.6846-2.2483 0-1.4514 1.016-2.4646 3.047-2.4646h1.6686v-0.14514c0-0.8124-0.49292-1.3783-1.3062-1.3783-0.81331 0-1.2332 0.52304-1.3053 0.94385h-1.8138c0.15974-1.2195 1.1465-2.3943 3.1191-2.3943 1.8868 0 3.12 1.2478 3.12 2.8297v4.7156h-1.5235zm-0.14514-2.4646h-1.5235c-0.94294 0-1.3783 0.36513-1.3783 0.94385s0.42081 0.94294 1.1611 0.94294c1.1027 0 1.7407-0.63897 1.7407-1.6686z"/>
    <path class="cls-2" d="m73.973 21.019h1.8138v7.3993h-1.8138z"/>
    <circle class="cls-2" cx="74.88" cy="18.883" r="1.0735"/>
   </g>
   <polygon class="cls-2" transform="matrix(.091281 0 0 .091281 -41.989 -26.668)" points="1134.4 488.24 1155 488.24 1136 511.29 1119.3 511.29"/>
  </g>
  <circle cx="17.378" cy="23.857" r="17.378" fill="#06f" stroke-width="0"/>
  <g transform="matrix(.38591 0 0 .38591 -58.372 14.112)" clip-path="url(#clip1-3)" fill="#fff">
   <path d="m186.13 24.793c0-6.0273 3.6641-11.871 9.9375-11.871 6.2148 0 9.8828 5.8438 9.8828 11.871 0 5.6523-3.0469 11.867-9.8828 11.867-6.8945 0-9.9375-6.2148-9.9375-11.867m-6.2148 0c0 9.0664 6.5859 16.59 16.152 16.59 9.5078 0 16.094-7.5234 16.094-16.59 0-9.6328-6.4609-16.59-16.094-16.59-9.6875 0-16.152 6.957-16.152 16.59m40.938 23.691v-2.2109h-5.7305c2.293-2.25 5.2891-4.9844 5.2891-7.9609 0-2.75-1.7266-4.0977-4.4023-4.0977-1.4219 0-2.8945 0.35938-4.1602 1.0039l0.21875 2.332c0.92188-0.60156 2.0508-1.125 3.2383-1.125 1.1445 0 2.293 0.60156 2.293 1.8867 0 2.5781-4.7656 6.5547-6.0703 7.8242v2.3477h9.3242" fill="#fff"/>
  </g>
 </g>
</svg>
